HIERARCHY
ROOT reference
{
  OFFSET 0 0 0
  CHANNELS 6 Xposition Yposition Zposition Zrotation Xrotation Yrotation
  JOINT Hips
  {
    OFFSET 19.8941 91.4584 12.6699
    CHANNELS 3 Zrotation Xrotation Yrotation
    JOINT RightUpLeg
    {
      OFFSET -9.21136 -1.54315 -0.00338228
      CHANNELS 3 Zrotation Xrotation Yrotation
      JOINT RightLeg
      {
        OFFSET 0.100199 -41.8913 0.117885
        CHANNELS 3 Zrotation Xrotation Yrotation
        JOINT RightFoot
        {
          OFFSET -0.0312538 -39.9042 0.200326
          CHANNELS 3 Zrotation Xrotation Yrotation
          End Site
          {
            OFFSET 0 -7.69 17.5
          }
        }
      }
    }
    JOINT LeftUpLeg
    {
      OFFSET 9.2904 -1.6473 0.00344049
      CHANNELS 3 Zrotation Xrotation Yrotation
      JOINT LeftLeg
      {
        OFFSET 0.15381 -41.8817 -0.0541105
        CHANNELS 3 Zrotation Xrotation Yrotation
        JOINT LeftFoot
        {
          OFFSET 0.872932 -43.9846 -0.139608
          CHANNELS 3 Zrotation Xrotation Yrotation
          End Site
          {
            OFFSET 0 -7.69 17.5
          }
        }
      }
    }
    JOINT Spine
    {
      OFFSET 0.0768477 14.3139 0.027738
      CHANNELS 3 Zrotation Xrotation Yrotation
      JOINT Spine1
      {
        OFFSET -0.0133682 9.71866 0.00713354
        CHANNELS 3 Zrotation Xrotation Yrotation
        JOINT Spine2
        {
          OFFSET -0.0175262 10.1212 -0.00524987
          CHANNELS 3 Zrotation Xrotation Yrotation
          JOINT Spine3
          {
            OFFSET -0.00348171 9.71796 0.0104149
            CHANNELS 3 Zrotation Xrotation Yrotation
            JOINT Neck
            {
              OFFSET -0.0845439 10.3822 0.044921
              CHANNELS 3 Zrotation Xrotation Yrotation
              JOINT Head
              {
                OFFSET -0.0310878 9.44025 0.0694291
                CHANNELS 3 Zrotation Xrotation Yrotation
                End Site
                {
                  OFFSET 0 15.95 0
                }
              }
            }
            JOINT RightShoulder
            {
              OFFSET -3.20882 6.90619 -0.0326675
              CHANNELS 3 Zrotation Xrotation Yrotation
              JOINT RightArm
              {
                OFFSET -12.8514 -0.0142271 -0.0483735
                CHANNELS 3 Zrotation Xrotation Yrotation
                JOINT RightForeArm
                {
                  OFFSET -26.4475 -0.0994884 -0.035967
                  CHANNELS 3 Zrotation Xrotation Yrotation
                  JOINT RightHand
                  {
                    OFFSET -25.9226 -0.102631 -0.136889
                    CHANNELS 3 Zrotation Xrotation Yrotation
                    JOINT RightHandThumb1
                    {
                      OFFSET -2.48905 0.190105 3.12053
                      CHANNELS 3 Zrotation Xrotation Yrotation
                      JOINT RightHandThumb2
                      {
                        OFFSET -3.68274 0 0
                        CHANNELS 3 Zrotation Xrotation Yrotation
                        JOINT RightHandThumb3
                        {
                          OFFSET -2.55832 0 0
                          CHANNELS 3 Zrotation Xrotation Yrotation
                          End Site
                          {
                            OFFSET -2.194 0 0
                          }
                        }
                      }
                    }
                    JOINT RightInHandIndex
                    {
                      OFFSET -3.22368 0.508421 1.97842
                      CHANNELS 3 Zrotation Xrotation Yrotation
                      JOINT RightHandIndex1
                      {
                        OFFSET -5.21684 -0.091368 0.999158
                        CHANNELS 3 Zrotation Xrotation Yrotation
                        JOINT RightHandIndex2
                        {
                          OFFSET -3.61937 0 0
                          CHANNELS 3 Zrotation Xrotation Yrotation
                          JOINT RightHandIndex3
                          {
                            OFFSET -2.0521 0 0
                            CHANNELS 3 Zrotation Xrotation Yrotation
                            End Site
                            {
                              OFFSET -1.805 0 0
                            }
                          }
                        }
                      }
                    }
                    JOINT RightInHandMiddle
                    {
                      OFFSET -3.38211 0.517263 0.756737
                      CHANNELS 3 Zrotation Xrotation Yrotation
                      JOINT RightHandMiddle1
                      {
                        OFFSET -5.17411 -0.084 0.313895
                        CHANNELS 3 Zrotation Xrotation Yrotation
                        JOINT RightHandMiddle2
                        {
                          OFFSET -3.94947 0 0
                          CHANNELS 3 Zrotation Xrotation Yrotation
                          JOINT RightHandMiddle3
                          {
                            OFFSET -2.47579 0 0
                            CHANNELS 3 Zrotation Xrotation Yrotation
                            End Site
                            {
                              OFFSET -1.975 0 0
                            }
                          }
                        }
                      }
                    }
                    JOINT RightInHandRing
                    {
                      OFFSET -3.36516 0.537895 -0.128947
                      CHANNELS 3 Zrotation Xrotation Yrotation
                      JOINT RightHandRing1
                      {
                        OFFSET -4.63474 -0.022105 -0.478947
                        CHANNELS 3 Zrotation Xrotation Yrotation
                        JOINT RightHandRing2
                        {
                          OFFSET -3.44238 0 0
                          CHANNELS 3 Zrotation Xrotation Yrotation
                          JOINT RightHandRing3
                          {
                            OFFSET -2.3881 0 0
                            CHANNELS 3 Zrotation Xrotation Yrotation
                            End Site
                            {
                              OFFSET -1.857 0 0
                            }
                          }
                        }
                      }
                    }
                    JOINT RightInHandPinky
                    {
                      OFFSET -3.16105 0.469368 -1.20179
                      CHANNELS 3 Zrotation Xrotation Yrotation
                      JOINT RightHandPinky1
                      {
                        OFFSET -4.14105 -0.022105 -1.09053
                        CHANNELS 3 Zrotation Xrotation Yrotation
                        JOINT RightHandPinky2
                        {
                          OFFSET -2.75653 0 0
                          CHANNELS 3 Zrotation Xrotation Yrotation
                          JOINT RightHandPinky3
                          {
                            OFFSET -1.74189 0 0
                            CHANNELS 3 Zrotation Xrotation Yrotation
                            End Site
                            {
                              OFFSET -1.645 0 0
                            }
                          }
                        }
                      }
                    }
                  }
                }
              }
            }
            JOINT LeftShoulder
            {
              OFFSET 3.19355 6.9059 0.0487761
              CHANNELS 3 Zrotation Xrotation Yrotation
              JOINT LeftArm
              {
                OFFSET 12.7349 -0.00433124 -0.0458964
                CHANNELS 3 Zrotation Xrotation Yrotation
                JOINT LeftForeArm
                {
                  OFFSET 26.4064 -0.194468 0.00909971
                  CHANNELS 3 Zrotation Xrotation Yrotation
                  JOINT LeftHand
                  {
                    OFFSET 25.9027 0.0515579 -0.250056
                    CHANNELS 3 Zrotation Xrotation Yrotation
                    JOINT LeftHandThumb1
                    {
                      OFFSET 2.48905 0.190105 3.12053
                      CHANNELS 3 Zrotation Xrotation Yrotation
                      JOINT LeftHandThumb2
                      {
                        OFFSET 3.68274 0 0
                        CHANNELS 3 Zrotation Xrotation Yrotation
                        JOINT LeftHandThumb3
                        {
                          OFFSET 2.55832 0 0
                          CHANNELS 3 Zrotation Xrotation Yrotation
                          End Site
                          {
                            OFFSET 2.194 0 0
                          }
                        }
                      }
                    }
                    JOINT LeftInHandIndex
                    {
                      OFFSET 3.22368 0.508421 1.97842
                      CHANNELS 3 Zrotation Xrotation Yrotation
                      JOINT LeftHandIndex1
                      {
                        OFFSET 5.21684 -0.091368 0.999158
                        CHANNELS 3 Zrotation Xrotation Yrotation
                        JOINT LeftHandIndex2
                        {
                          OFFSET 3.61937 0 0
                          CHANNELS 3 Zrotation Xrotation Yrotation
                          JOINT LeftHandIndex3
                          {
                            OFFSET 2.0521 0 0
                            CHANNELS 3 Zrotation Xrotation Yrotation
                            End Site
                            {
                              OFFSET 1.805 0 0
                            }
                          }
                        }
                      }
                    }
                    JOINT LeftInHandMiddle
                    {
                      OFFSET 3.38211 0.517263 0.756737
                      CHANNELS 3 Zrotation Xrotation Yrotation
                      JOINT LeftHandMiddle1
                      {
                        OFFSET 5.17411 -0.084 0.313895
                        CHANNELS 3 Zrotation Xrotation Yrotation
                        JOINT LeftHandMiddle2
                        {
                          OFFSET 3.94947 0 0
                          CHANNELS 3 Zrotation Xrotation Yrotation
                          JOINT LeftHandMiddle3
                          {
                            OFFSET 2.47579 0 0
                            CHANNELS 3 Zrotation Xrotation Yrotation
                            End Site
                            {
                              OFFSET 1.975 0 0
                            }
                          }
                        }
                      }
                    }
                    JOINT LeftInHandRing
                    {
                      OFFSET 3.36516 0.537895 -0.128947
                      CHANNELS 3 Zrotation Xrotation Yrotation
                      JOINT LeftHandRing1
                      {
                        OFFSET 4.63474 -0.022105 -0.478947
                        CHANNELS 3 Zrotation Xrotation Yrotation
                        JOINT LeftHandRing2
                        {
                          OFFSET 3.44238 0 0
                          CHANNELS 3 Zrotation Xrotation Yrotation
                          JOINT LeftHandRing3
                          {
                            OFFSET 2.3881 0 0
                            CHANNELS 3 Zrotation Xrotation Yrotation
                            End Site
                            {
                              OFFSET 1.857 0 0
                            }
                          }
                        }
                      }
                    }
                    JOINT LeftInHandPinky
                    {
                      OFFSET 3.16105 0.469368 -1.20179
                      CHANNELS 3 Zrotation Xrotation Yrotation
                      JOINT LeftHandPinky1
                      {
                        OFFSET 4.14105 -0.022105 -1.09053
                        CHANNELS 3 Zrotation Xrotation Yrotation
                        JOINT LeftHandPinky2
                        {
                          OFFSET 2.75653 0 0
                          CHANNELS 3 Zrotation Xrotation Yrotation
                          JOINT LeftHandPinky3
                          {
                            OFFSET 1.74189 0 0
                            CHANNELS 3 Zrotation Xrotation Yrotation
                            End Site
                            {
                              OFFSET 1.645 0 0
                            }
                          }
                        }
                      }
                    }
                  }
                }
              }
            }
          }
        }
      }
    }
  }
}
MOTION
Frames: 2
Frame Time: 0.00416667
3.000000000000000000e+02 0.000000000000000000e+00 0.000000000000000000e+00 0.000000000000000000e+00 0.000000000000000000e+00 0.000000000000000000e+00 -6.490023900863223574e-03 2.099572291259758135e-03 3.106197234661415944e-03 -3.178321432578609662e-03 1.179340430948293446e-02 1.414419449623887694e-02 7.775141645648782004e-03 -2.025301031216572047e-03 -2.186059659875523326e-03 -3.046649796145255423e-03 -5.564200188533060740e-03 -1.820575514563247191e-02 -7.591051920311266132e-03 1.958944398142293392e-04 2.386777174456814962e-02 7.940495823191048852e-03 7.911135312876132683e-03 -4.054737464457289220e-02 -2.241373876740541937e-04 -5.406313847069109564e-03 4.384493677202300904e-03 -1.175639133596311642e-02 -5.224905341631045025e-04 -9.993055088815330778e-02 -5.894497835797301438e-03 1.382053370794978850e-02 -2.511198504137230822e-02 -8.547812146706140410e-03 -8.623317131869109517e-03 -5.130624723906590523e-02 1.179008029850700089e-03 -5.288005679178127069e-03 7.183817911346237518e-03 7.922634095964711885e-04 -5.138596131702376051e-03 7.465007831450618490e-03 2.833278499480952270e-02 -9.520837273630884667e-02 1.383440683558644357e-01 7.319886142357612258e-02 1.621075759868772712e-02 2.131155887745366517e-01 -4.067109075661760886e-02 -2.004166517435835571e-01 -2.388174718092033605e-02 7.968517182465313375e-01 1.579980014334746996e-01 1.206433107303545027e+00 1.797733493397324911e-01 3.685696757475715457e-01 7.096340476035412070e-01 0.000000000000000000e+00 0.000000000000000000e+00 0.000000000000000000e+00 -2.059555969652670281e-15 -6.498326446172998178e-15 0.000000000000000000e+00 2.373486614326915532e-15 -6.787924992596685507e-15 0.000000000000000000e+00 9.855204611836812565e-16 -4.526284240927033724e-16 -1.341924227410447080e-16 0.000000000000000000e+00 0.000000000000000000e+00 0.000000000000000000e+00 0.000000000000000000e+00 9.013819388814586129e-15 3.308401402647626032e-14 0.000000000000000000e+00 4.614115920460093724e-15 1.457909274294713258e-14 9.855204611836812565e-16 -4.526284240927033724e-16 -1.341924227410447080e-16 0.000000000000000000e+00 4.756003753784524781e-15 3.079001465012693986e-14 0.000000000000000000e+00 8.534511801834636042e-15 4.106463305291912091e-14 0.000000000000000000e+00 1.768142385984273523e-15 1.186547272770909449e-14 9.855204611836812565e-16 -4.526284240927033724e-16 -1.341924227410447080e-16 0.000000000000000000e+00 0.000000000000000000e+00 0.000000000000000000e+00 0.000000000000000000e+00 1.077508122286306310e-14 4.404656438657914016e-14 0.000000000000000000e+00 2.762601461145712487e-15 1.392699771739650472e-14 9.855204611836812565e-16 -4.526284240927033724e-16 -1.341924227410447080e-16 0.000000000000000000e+00 0.000000000000000000e+00 0.000000000000000000e+00 0.000000000000000000e+00 1.008074383188042972e-14 4.252774451781151551e-14 0.000000000000000000e+00 3.230628692673564425e-15 1.296156358980591821e-14 3.102322419675502402e-02 -7.585167027856609678e-02 1.599397834255567585e-01 8.255782399913044745e-02 9.579349507479288650e-03 -1.379940701381703327e-01 1.019647480774153042e-02 -7.589773533196729483e-02 -7.355223346604999185e-03 -9.778649473183784191e-03 -6.043100784570398787e-02 4.075048383876301444e-02 0.000000000000000000e+00 0.000000000000000000e+00 0.000000000000000000e+00 2.966949198584783504e-15 4.538183004173882937e-15 0.000000000000000000e+00 1.797241716122093579e-15 1.978696167850011950e-15 0.000000000000000000e+00 -4.430465548056994963e-15 1.436985777690164069e-15 -3.929205943379343590e-16 0.000000000000000000e+00 0.000000000000000000e+00 0.000000000000000000e+00 0.000000000000000000e+00 -1.381731624311806793e-15 4.940881938581970042e-15 0.000000000000000000e+00 6.882385976290579137e-16 7.413307200935664239e-16 -4.430465548056994963e-15 1.436985777690164069e-15 -3.929205943379343590e-16 0.000000000000000000e+00 2.136908336360905512e-15 3.321207664391101746e-15 0.000000000000000000e+00 8.713706478654845417e-15 3.068200679098816263e-15 0.000000000000000000e+00 4.437297997208855310e-16 -8.333629544520072579e-15 -4.430465548056994963e-15 1.436985777690164069e-15 -3.929205943379343590e-16 0.000000000000000000e+00 0.000000000000000000e+00 0.000000000000000000e+00 0.000000000000000000e+00 1.800480377163960788e-16 2.068869011619943432e-15 0.000000000000000000e+00 -2.518293233025887766e-16 -6.474494873512080466e-15 -4.430465548056994963e-15 1.436985777690164069e-15 -3.929205943379343590e-16 0.000000000000000000e+00 0.000000000000000000e+00 0.000000000000000000e+00 0.000000000000000000e+00 -3.509047076808317024e-16 1.264998290626398412e-16 0.000000000000000000e+00 8.080610413572480754e-16 -6.801038875934143815e-15
3.000000000000000000e+02 0.000000000000000000e+00 0.000000000000000000e+00 0.000000000000000000e+00 0.000000000000000000e+00 0.000000000000000000e+00 -9.858833552317317755e-03 1.121470184214119065e-03 3.291064621757336384e-03 -8.503758601878757054e-03 1.478468035439905494e-02 1.189915109396344831e-02 1.009334812720134866e-02 -2.169519454961466465e-03 -5.354711799065774332e-03 -3.789917554090528520e-03 -4.540139151416536754e-03 -1.557771007819106802e-02 -8.248910592082143653e-03 5.006179963132783954e-03 1.832173539425623748e-02 4.920660944596220131e-03 5.237129825196851045e-03 -3.572953951968030339e-02 -1.717843963621636409e-03 -3.866881409414303205e-03 4.952914459693117874e-03 -1.226741784446963579e-02 2.354725237317548646e-03 -9.753923616618527526e-02 -6.006255911703636471e-03 1.349411896453139685e-02 -2.458009839569065200e-02 -8.631984799906025629e-03 -9.237094469598718799e-03 -5.040232968034798894e-02 1.236251644867391968e-03 -5.169714117437752832e-03 6.576933057524781898e-03 6.057035125505729183e-04 -5.019508346224236563e-03 6.851283631527314497e-03 2.514173200273142963e-02 -9.173557771292233098e-02 1.290256727503222844e-01 7.602392978069182072e-02 1.454469974578162343e-02 2.079201788673169793e-01 -4.445581910024148237e-02 -1.716044117748352360e-01 -8.844677885757556285e-03 1.127667654485511539e+00 1.526534491488847622e-01 3.630341519135576789e+00 1.563170541575621686e-01 3.341045159358477790e-01 5.954841623507255433e-01 0.000000000000000000e+00 0.000000000000000000e+00 0.000000000000000000e+00 -2.247491280068475817e-15 -5.812545912021042806e-15 0.000000000000000000e+00 1.652553877513474231e-15 -5.895096722604945403e-15 0.000000000000000000e+00 9.605728490563072219e-16 -5.157162358936385090e-16 -2.637702679333505036e-17 0.000000000000000000e+00 0.000000000000000000e+00 0.000000000000000000e+00 0.000000000000000000e+00 7.661072555271495155e-15 2.790120627507989062e-14 0.000000000000000000e+00 4.079928785705192973e-15 1.264734252243637844e-14 9.605728490563072219e-16 -5.157162358936385090e-16 -2.637702679333505036e-17 0.000000000000000000e+00 4.655152620050862046e-15 2.822667823938261073e-14 0.000000000000000000e+00 7.197020678180475186e-15 3.474680522643283996e-14 0.000000000000000000e+00 1.506704319474172753e-15 9.587786623069635432e-15 9.605728490563072219e-16 -5.157162358936385090e-16 -2.637702679333505036e-17 0.000000000000000000e+00 0.000000000000000000e+00 0.000000000000000000e+00 0.000000000000000000e+00 8.981382575669646218e-15 3.717783882289700024e-14 0.000000000000000000e+00 2.387707061933042154e-15 1.208836819995007533e-14 9.605728490563072219e-16 -5.157162358936385090e-16 -2.637702679333505036e-17 0.000000000000000000e+00 0.000000000000000000e+00 0.000000000000000000e+00 0.000000000000000000e+00 8.657712823761338798e-15 3.530286219647732655e-14 0.000000000000000000e+00 2.968487950586422845e-15 1.095616497490903331e-14 3.028222798008234351e-02 -8.288153369374452739e-02 1.617088634832568039e-01 1.119606867814963713e-01 1.549434671682585994e-02 -1.855146679924286057e-01 -1.494414911666165288e-02 -1.206016141861910446e-01 7.761063580141699947e-02 2.559595844557977645e-02 -9.497351771838797099e-03 5.452275803846970241e-03 0.000000000000000000e+00 0.000000000000000000e+00 0.000000000000000000e+00 2.790899592763897368e-15 3.938320403350317896e-15 0.000000000000000000e+00 1.679847023677965379e-15 1.440571911506317975e-15 0.000000000000000000e+00 -3.191354342075086864e-15 7.977792603542778798e-16 -2.636006603487587227e-16 0.000000000000000000e+00 0.000000000000000000e+00 0.000000000000000000e+00 0.000000000000000000e+00 -1.631847503231577314e-15 4.416665751196709897e-15 0.000000000000000000e+00 6.796678855117219842e-16 5.409522118251988564e-16 -3.191354342075086864e-15 7.977792603542778798e-16 -2.636006603487587227e-16 0.000000000000000000e+00 1.915470043659696858e-15 2.568704783348955181e-15 0.000000000000000000e+00 7.665759304590273015e-15 2.302295433906951167e-15 0.000000000000000000e+00 4.273547141546735369e-16 -7.858050842840894612e-15 -3.191354342075086864e-15 7.977792603542778798e-16 -2.636006603487587227e-16 0.000000000000000000e+00 0.000000000000000000e+00 0.000000000000000000e+00 0.000000000000000000e+00 -1.355762631146994324e-16 1.219977583322479196e-15 0.000000000000000000e+00 -1.084974263843178257e-16 -6.282005299880879392e-15 -3.191354342075086864e-15 7.977792603542778798e-16 -2.636006603487587227e-16 0.000000000000000000e+00 0.000000000000000000e+00 0.000000000000000000e+00 0.000000000000000000e+00 4.259994848666841972e-17 -2.535423231996346725e-16 0.000000000000000000e+00 6.953066801326627957e-16 -6.830910471339941299e-15
